<?xml version="1.0" encoding="UTF-8"?>
<svg xmlns="http://www.w3.org/2000/svg" version="1.1" viewBox="0 0 600 600">
  <defs>
    <style>
      .cls-1 {
        fill: #3f3f3f;
        font-family: Indivisible-Regular, Indivisible;
        font-size: 31.67px;
        letter-spacing: .7em;
      }

      .cls-2 {
        fill: #7f7f7f;
      }
    </style>
  </defs>
  <!-- Generator: Adobe Illustrator 28.6.0, SVG Export Plug-In . SVG Version: 1.2.0 Build 709)  -->
  <g>
    <g id="Layer_1">
      <g>
        <path class="cls-2" d="M273.39,275.8c30.95-71.37,62.08-139.68,91.28-204.47,10.56-23.32-24.2-29.47-49.27-6.6-52.79,141.22-78.75,179.05-94.14,179.05-24.64,0-38.71-69.07-62.47-185.65-5.28-25.96-40.47,6.6-43.99,27.72,26.1,123,45.45,171.52,64.05,189.95h94.56Z"/>
        <path class="cls-2" d="M201.14,341.11l-33.11,68.53c-12.76,26.4,33.43,19.36,51.91-6.16,8.44-21.02,16.99-41.8,25.61-62.37h-44.4Z"/>
      </g>
      <g>
        <path class="cls-2" d="M349.55,275.8c16.42-26.43,36.96-43.95,57.35-43.95s34.59,13.09,43.33,34.63c9.88,23.23,30.03-3.38,32.69-38.01-13.3-31.68-35.35-44.35-59.68-44.35-42.2,0-82.73,36.4-109.27,91.67h35.57Z"/>
        <path class="cls-2" d="M446.44,345.04c-26.99,0-43.71,8.87-66.9,19.43-12.16,13.51-26.99,54.9-6.84,46.03,19.39-8.45,36.87-16.89,59.68-16.89,11.4,0,17.49,4.22,17.49,18.16,0,29.99-41.05,82.78-78.68,82.78s-55.49-38.86-55.49-97.98c0-18.47,2.54-37.36,7.02-55.46h-31.17c-5.49,24.26-8.54,50.21-8.54,77,0,63.77,24.33,120.37,73.74,120.37,63.48,0,128.48-86.16,128.48-147.82,0-22.81-10.26-45.61-38.77-45.61Z"/>
      </g>
      <text class="cls-1" transform="translate(136.91 318.41)"><tspan x="0" y="0">YANG GAO</tspan></text>
    </g>
  </g>
</svg>